<?xml version="1.0" standalone="no"?>
<!DOCTYPE svg PUBLIC "-//W3C//DTD SVG 20010904//EN"
 "http://www.w3.org/TR/2001/REC-SVG-20010904/DTD/svg10.dtd">
<svg version="1.0" xmlns="http://www.w3.org/2000/svg"
 width="99.8000000pt" height="63.6000000pt" viewBox="0 0 598.000000 236.000000"
 preserveAspectRatio="xMidYMid meet">

<g transform="translate(0.000000,236.000000) scale(0.100000,-0.100000)"
fill="#000" stroke="none">
<path d="M2981 1769 c0 -57 19 -147 82 -399 l82 -325 100 -3 101 -3 82 338
c46 186 83 359 82 384 0 55 -6 59 -90 59 l-58 0 -52 -212 c-68 -277 -61 -254
-70 -237 -4 8 -31 113 -60 234 -28 121 -53 221 -55 223 -2 2 -35 6 -74 9 l-71
6 1 -74z"/>
<path d="M2602 1821 l-34 -6 -1 -90 -2 -90 43 -3 42 -3 0 -189 0 -188 -39 -7
-39 -6 -4 -92 c-2 -51 -2 -95 1 -98 3 -3 79 -3 169 -1 l162 4 0 99 0 99 -45 0
-45 0 2 193 c3 162 5 192 18 193 8 1 27 2 43 3 l27 1 0 95 0 95 -132 -1 c-73
-1 -148 -4 -166 -8z"/>
<path d="M3590 1416 l0 -383 168 -13 c92 -7 172 -12 177 -12 6 1 10 41 10 95
l0 92 -105 10 -105 10 0 60 c0 69 -15 63 133 51 l82 -6 0 83 0 84 -67 6 c-38
4 -85 7 -105 7 l-38 0 0 56 0 57 105 -7 105 -7 0 81 c0 44 -1 80 -2 80 -2 0
-70 9 -152 20 -81 11 -161 20 -177 20 l-29 0 0 -384z"/>
<path d="M2115 1779 c-33 -5 -66 -11 -73 -14 -16 -6 -13 -761 3 -759 9 2 199
17 368 30 l77 6 0 100 0 100 -97 -6 c-54 -4 -119 -9 -145 -12 l-48 -6 0 286
c0 223 -3 286 -12 285 -7 -1 -40 -5 -73 -10z"/>
<path d="M1657 1699 c-104 -22 -199 -44 -213 -49 l-24 -10 0 -365 c0 -344 1
-366 18 -361 14 4 236 41 377 62 53 8 57 11 104 74 l41 54 0 106 c0 105 0 107
-30 135 -16 16 -30 34 -30 39 0 6 14 29 31 51 29 39 30 42 28 143 -1 102 -2
104 -33 133 -18 17 -41 29 -56 28 -14 0 -110 -19 -213 -40z m131 -186 l-3 -48
-88 -18 c-48 -11 -94 -16 -101 -14 -10 4 -12 17 -9 44 3 21 6 39 7 41 3 2 170
39 189 41 4 1 7 -20 5 -46z m2 -297 l0 -44 -87 -16 c-118 -22 -113 -23 -113
28 l0 45 53 10 c28 5 61 12 72 14 11 3 32 5 48 6 26 1 27 -1 27 -43z"/>
<path d="M4067 1692 l-37 -38 0 -283 0 -284 41 -54 c23 -29 42 -53 44 -53 1 0
84 -11 185 -26 l183 -25 39 38 38 37 0 267 0 266 -49 65 -49 65 -159 31 c-87
18 -167 32 -178 32 -12 0 -38 -17 -58 -38z m239 -184 l94 -21 0 -179 0 -178
-23 0 c-22 0 -112 14 -164 25 -23 5 -23 7 -23 190 0 124 4 185 11 185 5 0 53
-10 105 -22z"/>
<path d="M4649 1184 c-1 -242 -1 -445 0 -451 3 -19 -18 -17 -215 22 -99 19
-183 35 -187 35 -5 0 -5 -32 -1 -70 l7 -70 -189 66 c-489 171 -557 194 -560
192 -1 -2 70 -40 159 -86 519 -266 777 -395 781 -391 3 2 0 37 -6 77 -6 39 -9
74 -6 78 7 6 213 -25 356 -55 67 -13 95 -16 98 -7 2 6 5 147 6 314 l3 303 75
-97 c41 -54 108 -138 148 -188 l72 -90 0 -152 0 -152 108 -26 c60 -14 114 -26
120 -26 9 0 12 118 12 479 l0 480 -105 40 c-58 23 -112 41 -120 41 -12 0 -15
-29 -17 -157 l-3 -157 -159 210 c-88 115 -164 212 -170 216 -5 3 -46 16 -91
27 -45 11 -89 23 -98 27 -16 6 -17 -27 -18 -432z"/>
<path d="M1160 1579 c-62 -17 -383 -121 -437 -141 -47 -17 -58 -27 -113 -108
l-60 -89 0 -365 0 -365 60 -39 59 -39 188 38 c252 52 682 123 690 115 4 -3 1
-39 -5 -78 -6 -40 -9 -75 -6 -77 2 -3 161 75 352 172 546 278 611 312 607 315
-2 2 -172 -56 -380 -128 -207 -73 -379 -130 -381 -127 -3 3 -1 33 4 66 5 34 7
62 5 64 -2 2 -92 -13 -201 -35 -108 -21 -198 -38 -199 -38 -2 0 -3 179 -3 398
l0 397 -58 38 c-62 39 -68 41 -122 26z m-70 -542 l0 -263 -137 -33 c-76 -18
-142 -34 -146 -35 -4 0 -8 114 -8 254 -1 205 2 255 13 259 25 9 263 80 271 80
4 1 7 -117 7 -262z"/>
</g>
</svg>
